<svg
  xmlns="http://www.w3.org/2000/svg"
  width="256"
  height="256"
  viewBox="0 0 256 256"
  fill="none"
>
  <defs>
    <linearGradient id="bp-bg" x1="36" y1="28" x2="220" y2="228" gradientUnits="userSpaceOnUse">
      <stop offset="0" stop-color="#0F172A" />
      <stop offset="1" stop-color="#1E293B" />
    </linearGradient>
    <linearGradient id="bp-accent" x1="76" y1="64" x2="184" y2="184" gradientUnits="userSpaceOnUse">
      <stop offset="0" stop-color="#60A5FA" />
      <stop offset="1" stop-color="#2563EB" />
    </linearGradient>
  </defs>
  <rect x="16" y="16" width="224" height="224" rx="56" fill="url(#bp-bg)" />
  <path
    d="M48 60H87.2C116.8 60 136.08 77.08 136.08 104C136.08 122.64 126.72 137.08 110.48 144.52C122.4 149.64 130.4 161.44 130.4 177.72C130.4 205.72 109.84 224 78.92 224H48V60ZM76.72 126.08C91.76 126.08 100.56 118.36 100.56 106.08C100.56 93.68 91.76 86.48 76.72 86.48H75.04V126.08H76.72ZM79.12 197.52C95.6 197.52 105.08 189.32 105.08 175.28C105.08 160.84 95.6 152.52 79.12 152.52H75.04V197.52H79.12Z"
    fill="#E2E8F0"
  />
  <path
    d="M150 60H175.44C204.08 60 224 77.92 224 111.6C224 145.16 204.32 163.2 175.44 163.2H175V137.6H175.44C188.4 137.6 197.52 127.72 197.52 111.6C197.52 95.48 188.4 85.6 175.44 85.6H175V224H150V60Z"
    fill="url(#bp-accent)"
  />
</svg>
